<?xml version="1.0" encoding="UTF-8"?>
<svg width="680px" height="511px" viewBox="0 0 680 511" version="1.1" xmlns="http://www.w3.org/2000/svg" xmlns:xlink="http://www.w3.org/1999/xlink">
    <title>channels-example-all@2x</title>
    <defs>
        <rect id="path-1" x="0" y="0" width="60" height="60"></rect>
        <rect id="path-3" x="0" y="0" width="60" height="60"></rect>
        <rect id="path-5" x="0" y="0" width="60" height="60"></rect>
        <rect id="path-7" x="0" y="0" width="45" height="44.5652174"></rect>
        <rect id="path-9" x="0" y="0" width="45" height="44.5652174"></rect>
        <rect id="path-11" x="0" y="0" width="62" height="78"></rect>
        <rect id="path-13" x="0" y="0" width="62" height="78"></rect>
        <rect id="path-15" x="0" y="0" width="62" height="78"></rect>
    </defs>
    <g id="conceptual-diagrams" stroke="none" stroke-width="1" fill="none" fill-rule="evenodd">
        <g id="Base-organizational-artboard" transform="translate(-701.000000, 0.000000)">
            <g id="channels-example-all" transform="translate(701.000000, 0.000000)">
                <g id="Group" fill="#ECECEC" stroke="#979797" stroke-width="2">
                    <g id="boxes/edgedBox--grey">
                        <rect id="Rectangle" x="1" y="1" width="678" height="509" rx="20"></rect>
                    </g>
                </g>
                <g id="channels-example-content" transform="translate(26.000000, 59.000000)">
                    <g id="Labelled-Box--Channel" transform="translate(442.000000, 67.000000)">
                        <rect id="Rectangle" stroke="#979797" fill="#D8D8D8" x="0.5" y="0.5" width="185" height="99" rx="8"></rect>
                        <g id="media-/-shuffle" transform="translate(67.000000, 40.000000)">
                            <mask id="mask-2" fill="white">
                                <use xlink:href="#path-1"></use>
                            </mask>
                            <g id="media-/-shuffle-(Background/Mask)"></g>
                            <path d="M26.4750004,22.9250002 L13.5249999,10 L10,13.5249999 L22.9250002,26.4499998 L26.4750004,22.9250002 L26.4750004,22.9250002 Z M36.25,10 L41.3499999,15.0999999 L10,46.4750004 L13.5249999,50 L44.9000001,18.6500001 L50,23.75 L50,10 L36.25,10 L36.25,10 Z M33.5500002,37.0499992 L37.0749998,33.5249996 L44.9000001,41.3499999 L50,36.25 L50,50 L36.25,50 L41.3750005,44.8749995 L33.5500002,37.0499992 L33.5500002,37.0499992 Z" fill="#2E3A59" mask="url(#mask-2)"></path>
                        </g>
                        <text id="Sync-Gateway---text" font-family="Arial-BoldMT, Arial" font-size="18" font-weight="bold" fill="#DC0E0E">
                            <tspan x="44.4853516" y="16">Channel #2 </tspan>
                            <tspan x="56.4868164" y="36">(Private)</tspan>
                        </text>
                    </g>
                    <g id="Labelled-Box--Channel" transform="translate(221.000000, 67.000000)">
                        <rect id="Rectangle" stroke="#979797" fill="#D8D8D8" x="0.5" y="0.5" width="185" height="99" rx="8"></rect>
                        <g id="media-/-shuffle" transform="translate(67.000000, 40.000000)">
                            <mask id="mask-4" fill="white">
                                <use xlink:href="#path-3"></use>
                            </mask>
                            <g id="media-/-shuffle-(Background/Mask)"></g>
                            <path d="M26.4750004,22.9250002 L13.5249999,10 L10,13.5249999 L22.9250002,26.4499998 L26.4750004,22.9250002 L26.4750004,22.9250002 Z M36.25,10 L41.3499999,15.0999999 L10,46.4750004 L13.5249999,50 L44.9000001,18.6500001 L50,23.75 L50,10 L36.25,10 L36.25,10 Z M33.5500002,37.0499992 L37.0749998,33.5249996 L44.9000001,41.3499999 L50,36.25 L50,50 L36.25,50 L41.3750005,44.8749995 L33.5500002,37.0499992 L33.5500002,37.0499992 Z" fill="#2E3A59" mask="url(#mask-4)"></path>
                        </g>
                        <text id="Sync-Gateway---text" font-family="Arial-BoldMT, Arial" font-size="18" font-weight="bold" fill="#DC0E0E">
                            <tspan x="44.4853516" y="16">Channel #3 </tspan>
                            <tspan x="55.9946289" y="36">(Shared)</tspan>
                        </text>
                    </g>
                    <g id="Labelled-Box--Channel" transform="translate(0.000000, 67.000000)">
                        <rect id="Rectangle" stroke="#979797" fill="#D8D8D8" x="0.5" y="0.5" width="185" height="99" rx="8"></rect>
                        <g id="media-/-shuffle" transform="translate(67.000000, 40.000000)">
                            <mask id="mask-6" fill="white">
                                <use xlink:href="#path-5"></use>
                            </mask>
                            <g id="media-/-shuffle-(Background/Mask)"></g>
                            <path d="M26.4750004,22.9250002 L13.5249999,10 L10,13.5249999 L22.9250002,26.4499998 L26.4750004,22.9250002 L26.4750004,22.9250002 Z M36.25,10 L41.3499999,15.0999999 L10,46.4750004 L13.5249999,50 L44.9000001,18.6500001 L50,23.75 L50,10 L36.25,10 L36.25,10 Z M33.5500002,37.0499992 L37.0749998,33.5249996 L44.9000001,41.3499999 L50,36.25 L50,50 L36.25,50 L41.3750005,44.8749995 L33.5500002,37.0499992 L33.5500002,37.0499992 Z" fill="#2E3A59" mask="url(#mask-6)"></path>
                        </g>
                        <text id="Sync-Gateway---text" font-family="Arial-BoldMT, Arial" font-size="18" font-weight="bold" fill="#DC0E0E">
                            <tspan x="44.4853516" y="16">Channel #1 </tspan>
                            <tspan x="56.4868164" y="36">(Private)</tspan>
                        </text>
                    </g>
                    <g id="Labelled-Circle" transform="translate(47.000000, 293.000000)">
                        <ellipse id="Oval" stroke="#979797" fill="#D8D8D8" cx="46" cy="50" rx="45.5" ry="49.5"></ellipse>
                        <text id="Sync-Gateway---text" font-family="Arial-BoldMT, Arial" font-size="18" font-weight="bold" fill="#DC0E0E">
                            <tspan x="11.4853516" y="25.7826087">Edge #1</tspan>
                        </text>
                        <g id="user-/-user" transform="translate(24.000000, 45.652174)">
                            <mask id="mask-8" fill="white">
                                <use xlink:href="#path-7"></use>
                            </mask>
                            <g id="user-/-user-(Background/Mask)"></g>
                            <path d="M13.125,12.9981884 C13.125,18.1176177 17.3306251,22.2826087 22.5,22.2826087 C27.6693749,22.2826087 31.875,18.1176177 31.875,12.9981884 C31.875,7.87875911 27.6693749,3.71376812 22.5,3.71376812 C17.3306251,3.71376812 13.125,7.87875911 13.125,12.9981884 Z M16.875,12.9981884 C16.875,9.92690209 19.3987499,7.42753623 22.5,7.42753623 C25.6012501,7.42753623 28.125,9.92690209 28.125,12.9981884 C28.125,16.0694747 25.6012501,18.5688406 22.5,18.5688406 C19.3987499,18.5688406 16.875,16.0694747 16.875,12.9981884 Z M39.375,37.1376812 C39.375,29.9719656 33.4856249,24.1394928 26.25,24.1394928 L18.75,24.1394928 C11.5125002,24.1394928 5.625,29.9719656 5.625,37.1376812 L5.625,38.9945652 L9.375,38.9945652 L9.375,37.1376812 C9.375,32.0182519 13.5806251,27.8532609 18.75,27.8532609 L26.25,27.8532609 C31.4193749,27.8532609 35.625,32.0182519 35.625,37.1376812 L35.625,38.9945652 L39.375,38.9945652 L39.375,37.1376812 Z" fill="#2E3A59" mask="url(#mask-8)"></path>
                        </g>
                    </g>
                    <g id="Labelled-Circle" transform="translate(489.000000, 293.000000)">
                        <ellipse id="Oval" stroke="#979797" fill="#D8D8D8" cx="46" cy="50" rx="45.5" ry="49.5"></ellipse>
                        <text id="Sync-Gateway---text" font-family="Arial-BoldMT, Arial" font-size="18" font-weight="bold" fill="#DC0E0E">
                            <tspan x="11.4853516" y="25.7826087">Edge #2</tspan>
                        </text>
                        <g id="user-/-user" transform="translate(24.000000, 45.652174)">
                            <mask id="mask-10" fill="white">
                                <use xlink:href="#path-9"></use>
                            </mask>
                            <g id="user-/-user-(Background/Mask)"></g>
                            <path d="M13.125,12.9981884 C13.125,18.1176177 17.3306251,22.2826087 22.5,22.2826087 C27.6693749,22.2826087 31.875,18.1176177 31.875,12.9981884 C31.875,7.87875911 27.6693749,3.71376812 22.5,3.71376812 C17.3306251,3.71376812 13.125,7.87875911 13.125,12.9981884 Z M16.875,12.9981884 C16.875,9.92690209 19.3987499,7.42753623 22.5,7.42753623 C25.6012501,7.42753623 28.125,9.92690209 28.125,12.9981884 C28.125,16.0694747 25.6012501,18.5688406 22.5,18.5688406 C19.3987499,18.5688406 16.875,16.0694747 16.875,12.9981884 Z M39.375,37.1376812 C39.375,29.9719656 33.4856249,24.1394928 26.25,24.1394928 L18.75,24.1394928 C11.5125002,24.1394928 5.625,29.9719656 5.625,37.1376812 L5.625,38.9945652 L9.375,38.9945652 L9.375,37.1376812 C9.375,32.0182519 13.5806251,27.8532609 18.75,27.8532609 L26.25,27.8532609 C31.4193749,27.8532609 35.625,32.0182519 35.625,37.1376812 L35.625,38.9945652 L39.375,38.9945652 L39.375,37.1376812 Z" fill="#2E3A59" mask="url(#mask-10)"></path>
                        </g>
                    </g>
                    <g id="Document-Queue" transform="translate(223.000000, 0.000000)">
                        <text id="Sync-Gateway---text" font-family="Arial-BoldMT, Arial" font-size="18" font-weight="bold" fill="#DD3615">
                            <tspan x="62.9921875" y="16">Documents</tspan>
                        </text>
                        <g id="basic-/-layers_alt">
                            <mask id="mask-12" fill="white">
                                <use xlink:href="#path-11"></use>
                            </mask>
                            <g id="basic-/-layers_alt-(Background/Mask)"></g>
                            <path d="M11.935,34.9050364 L7.75,39.0000372 L31,61.7500372 L54.25,39.0000372 L50.0391688,34.8725357 L30.9741661,53.527535 L11.935,34.9050364 Z M11.935,48.7825379 L7.75,52.8775387 L31,75.6275387 L54.25,52.8775387 L50.0391688,48.7500372 L30.9741661,67.4050364 L11.935,48.7825379 Z M50.0133349,29.2500372 L54.25,25.1225357 L31,2.37253571 L7.75,25.1225357 L11.9608333,29.2500372 L31,47.8725357 L50.0133349,29.2500372 Z" fill="#2E3A59" mask="url(#mask-12)"></path>
                        </g>
                    </g>
                    <g id="Document-Queue" transform="translate(445.000000, 0.000000)">
                        <text id="Sync-Gateway---text" font-family="Arial-BoldMT, Arial" font-size="18" font-weight="bold" fill="#DD3615">
                            <tspan x="62.9921875" y="16">Documents</tspan>
                        </text>
                        <g id="basic-/-layers_alt">
                            <mask id="mask-14" fill="white">
                                <use xlink:href="#path-13"></use>
                            </mask>
                            <g id="basic-/-layers_alt-(Background/Mask)"></g>
                            <path d="M11.935,34.9050364 L7.75,39.0000372 L31,61.7500372 L54.25,39.0000372 L50.0391688,34.8725357 L30.9741661,53.527535 L11.935,34.9050364 Z M11.935,48.7825379 L7.75,52.8775387 L31,75.6275387 L54.25,52.8775387 L50.0391688,48.7500372 L30.9741661,67.4050364 L11.935,48.7825379 Z M50.0133349,29.2500372 L54.25,25.1225357 L31,2.37253571 L7.75,25.1225357 L11.9608333,29.2500372 L31,47.8725357 L50.0133349,29.2500372 Z" fill="#2E3A59" mask="url(#mask-14)"></path>
                        </g>
                    </g>
                    <g id="Document-Queue">
                        <text id="Sync-Gateway---text" font-family="Arial-BoldMT, Arial" font-size="18" font-weight="bold" fill="#DD3615">
                            <tspan x="62.9921875" y="16">Documents</tspan>
                        </text>
                        <g id="basic-/-layers_alt">
                            <mask id="mask-16" fill="white">
                                <use xlink:href="#path-15"></use>
                            </mask>
                            <g id="basic-/-layers_alt-(Background/Mask)"></g>
                            <path d="M11.935,34.9050364 L7.75,39.0000372 L31,61.7500372 L54.25,39.0000372 L50.0391688,34.8725357 L30.9741661,53.527535 L11.935,34.9050364 Z M11.935,48.7825379 L7.75,52.8775387 L31,75.6275387 L54.25,52.8775387 L50.0391688,48.7500372 L30.9741661,67.4050364 L11.935,48.7825379 Z M50.0133349,29.2500372 L54.25,25.1225357 L31,2.37253571 L7.75,25.1225357 L11.9608333,29.2500372 L31,47.8725357 L50.0133349,29.2500372 Z" fill="#2E3A59" mask="url(#mask-16)"></path>
                        </g>
                    </g>
                    <g id="Group" transform="translate(139.000000, 167.000000)">
                        <g id="Labelled-Arrow" transform="translate(-0.000000, 0.745763)">
                            <path id="Line-3" d="M-0.352656909,-0.354447605 L9.1851959,2.8516971 L6.349,5.672 L171.56905,171.730779 C173.339466,170.320414 175.92526,170.438422 177.558868,172.080325 C179.311772,173.842129 179.304556,176.691362 177.542752,178.444266 C175.780948,180.197169 172.931715,180.189954 171.178811,178.428149 C169.545257,176.786301 169.440301,174.20006 170.859465,172.436814 L5.641,6.378 L2.80513901,9.19952146 L-0.352656909,-0.354447605 Z M171.917906,172.75565 L171.889,172.785 L171.758647,172.922365 C170.531295,174.293685 170.573029,176.401483 171.887707,177.722836 C173.251076,179.093128 175.467146,179.09874 176.837438,177.735371 C178.20773,176.372001 178.213342,174.155931 176.849973,172.785639 C175.492447,171.42122 173.289513,171.409808 171.917906,172.75565 Z" fill="#87C5DC" fill-rule="nonzero"></path>
                            <text id="Sync-Gateway---text" font-family="Arial-BoldMT, Arial" font-size="18" font-weight="bold"></text>
                        </g>
                    </g>
                    <g id="Group" transform="translate(314.000000, 167.000000)">
                        <g id="Labelled-Arrow-2" transform="translate(87.500000, 88.000000) scale(-1, 1) translate(-87.500000, -88.000000) ">
                            <g id="Labelled-Arrow" transform="translate(-0.000000, 0.745763)">
                                <path id="Line-3" d="M-0.352656909,-0.354447605 L9.1851959,2.8516971 L6.349,5.672 L171.56905,171.730779 C173.339466,170.320414 175.92526,170.438422 177.558868,172.080325 C179.311772,173.842129 179.304556,176.691362 177.542752,178.444266 C175.780948,180.197169 172.931715,180.189954 171.178811,178.428149 C169.545257,176.786301 169.440301,174.20006 170.859465,172.436814 L5.641,6.378 L2.80513901,9.19952146 L-0.352656909,-0.354447605 Z M171.917906,172.75565 L171.889,172.785 L171.758647,172.922365 C170.531295,174.293685 170.573029,176.401483 171.887707,177.722836 C173.251076,179.093128 175.467146,179.09874 176.837438,177.735371 C178.20773,176.372001 178.213342,174.155931 176.849973,172.785639 C175.492447,171.42122 173.289513,171.409808 171.917906,172.75565 Z" fill="#87C5DC" fill-rule="nonzero"></path>
                                <text id="Sync-Gateway---text" font-family="Arial-BoldMT, Arial" font-size="18" font-weight="bold"></text>
                            </g>
                        </g>
                    </g>
                    <g id="Channel1" transform="translate(93.000000, 167.533898)">
                        <g id="Labelled-Arrow" transform="translate(0.000000, 0.000000)">
                            <path id="Line-3" d="M-0.00398501358,-0.499984119 L4.56760231,8.46386491 L0.567,8.495 L1.432,116.962 L5.43211184,116.930507 L1.00398501,125.966086 L-3.56760231,117.002237 L0.432,116.97 L-0.432,8.503 L-4.43211184,8.53559515 L-0.00398501358,-0.499984119 Z" fill="#87C5DC" fill-rule="nonzero"></path>
                            <text id="Sync-Gateway---text" font-family="Arial-BoldMT, Arial" font-size="18" font-weight="bold"></text>
                        </g>
                    </g>
                    <g id="Channel2" transform="translate(535.000000, 167.533898)">
                        <g id="Labelled-Arrow" transform="translate(0.000000, 0.000000)">
                            <path id="Line-3" d="M-0.00398501358,-0.499984119 L4.56760231,8.46386491 L0.567,8.495 L1.432,116.962 L5.43211184,116.930507 L1.00398501,125.966086 L-3.56760231,117.002237 L0.432,116.97 L-0.432,8.503 L-4.43211184,8.53559515 L-0.00398501358,-0.499984119 Z" fill="#87C5DC" fill-rule="nonzero"></path>
                            <text id="Sync-Gateway---text" font-family="Arial-BoldMT, Arial" font-size="18" font-weight="bold"></text>
                        </g>
                    </g>
                </g>
            </g>
        </g>
    </g>
</svg>