<?xml version="1.0" encoding="UTF-8"?>
<svg width="40px" height="30px" viewBox="0 0 40 30" version="1.1" xmlns="http://www.w3.org/2000/svg" xmlns:xlink="http://www.w3.org/1999/xlink">
    <title>label-2-group@2x</title>
    <defs>
        <rect id="path-1" x="0" y="0" width="50" height="50"></rect>
    </defs>
    <g id="conceptual-diagrams" stroke="none" stroke-width="1" fill="none" fill-rule="evenodd">
        <g id="Base-organizational-artboard" transform="translate(-1046.000000, -765.000000)">
            <g id="label-2-group" transform="translate(1041.000000, 755.000000)">
                <g id="basic-/-label">
                    <mask id="mask-2" fill="white">
                        <use xlink:href="#path-1"></use>
                    </mask>
                    <g id="basic-/-label-(Background/Mask)"></g>
                    <path d="M32.2916667,10.4166667 C33.6875002,10.4166667 34.937501,11.1041666 35.6875002,12.1666666 L44.7916667,25 L35.6875002,37.833333 C34.937501,38.8958335 33.6875002,39.5833333 32.2916667,39.5833333 L9.375,39.5624995 C7.08333328,39.5624995 5.20833333,37.7083341 5.20833333,35.4166667 L5.20833333,14.5833333 C5.20833333,12.2916666 7.08333328,10.4375 9.375,10.4375 L32.2916667,10.4166667 C33.2222223,10.4166667 33.2222223,10.4166667 32.2916667,10.4166667 Z M9.375,35.4166667 L32.2916667,35.4166667 L39.6874984,25 L32.2916667,14.5833333 L9.375,14.5833333 L9.375,35.4166667 L9.375,35.4166667 Z" fill="#2E3A59" mask="url(#mask-2)"></path>
                </g>
                <text id="text-label" fill-rule="nonzero" font-family="Arial-BoldMT, Arial" font-size="18" font-weight="bold" line-spacing="30" fill="#DD3615">
                    <tspan x="17.8071289" y="29.125">2</tspan>
                </text>
            </g>
        </g>
    </g>
</svg>