<?xml version="1.0" encoding="UTF-8"?>
<svg width="417px" height="426px" viewBox="0 0 417 426" version="1.1" xmlns="http://www.w3.org/2000/svg" xmlns:xlink="http://www.w3.org/1999/xlink">
    <title>channel-access-grant-all@2x</title>
    <defs>
        <filter x="-2.9%" y="-2.9%" width="105.9%" height="105.7%" filterUnits="objectBoundingBox" id="filter-1">
            <feOffset dx="0" dy="2" in="SourceAlpha" result="shadowOffsetOuter1"></feOffset>
            <feGaussianBlur stdDeviation="2" in="shadowOffsetOuter1" result="shadowBlurOuter1"></feGaussianBlur>
            <feColorMatrix values="0 0 0 0 0   0 0 0 0 0   0 0 0 0 0  0 0 0 0.5 0" type="matrix" in="shadowBlurOuter1" result="shadowMatrixOuter1"></feColorMatrix>
            <feMerge>
                <feMergeNode in="shadowMatrixOuter1"></feMergeNode>
                <feMergeNode in="SourceGraphic"></feMergeNode>
            </feMerge>
        </filter>
        <rect id="path-2" x="0" y="0" width="60" height="60"></rect>
        <rect id="path-4" x="0" y="0" width="58.6956522" height="53.4782609"></rect>
        <rect id="path-6" x="0" y="0" width="58.6956522" height="53.4782609"></rect>
        <rect id="path-8" x="0" y="0" width="60" height="60"></rect>
        <rect id="path-10" x="0" y="0" width="60" height="100"></rect>
        <rect id="path-12" x="0" y="0" width="60" height="123"></rect>
        <filter color-interpolation-filters="auto" id="filter-14">
            <feColorMatrix in="SourceGraphic" type="matrix" values="0 0 0 0 0.234661 0 0 0 0 0.223740 0 0 0 0 0.223740 0 0 0 1.000000 0"></feColorMatrix>
        </filter>
        <rect id="path-15" x="0" y="0" width="80" height="80"></rect>
        <filter color-interpolation-filters="auto" id="filter-17">
            <feColorMatrix in="SourceGraphic" type="matrix" values="0 0 0 0 0.234661 0 0 0 0 0.223740 0 0 0 0 0.223740 0 0 0 1.000000 0"></feColorMatrix>
        </filter>
        <rect id="path-18" x="0" y="0" width="80" height="80"></rect>
    </defs>
    <g id="conceptual-diagrams" stroke="none" stroke-width="1" fill="none" fill-rule="evenodd">
        <g id="Base-organizational-artboard" transform="translate(-163.000000, -544.000000)">
            <g id="channel-access-grant-all" transform="translate(166.000000, 546.000000)" filter="url(#filter-1)">
                <g id="channel-access-grants" transform="translate(200.000000, 0.000000)">
                    <g id="Note" transform="translate(73.000000, 0.000000)">
                        <rect id="Rectangle" stroke="#979797" fill="#EEE0C3" x="0.5" y="0.5" width="64" height="99" rx="8"></rect>
                        <g id="file-/-note" transform="translate(2.500000, 40.000000)">
                            <mask id="mask-3" fill="white">
                                <use xlink:href="#path-2"></use>
                            </mask>
                            <g id="file-/-note-(Background/Mask)"></g>
                            <path d="M12.5,7.5 C9.74249989,7.5 7.5,9.74249989 7.5,12.5 L7.5,47.5 C7.5,50.2575001 9.74249989,52.5 12.5,52.5 L32.5,52.5 C32.8275,52.5 33.1499989,52.4349995 33.4524989,52.3099995 C33.7549989,52.1849995 34.0324995,52.0025018 34.2674994,51.7675018 L51.7675018,34.2674994 C51.9825018,34.0524994 52.1349997,33.7999989 52.2574997,33.5349989 C52.2924997,33.4599989 52.3125021,33.3825003 52.3400021,33.3025002 C52.4100021,33.0925003 52.4549988,32.8775007 52.4674988,32.6550007 C52.4724988,32.6025007 52.5,32.5525 52.5,32.5 L52.5,12.5 C52.5,9.74249989 50.2575001,7.5 47.5,7.5 L12.5,7.5 Z M47.5,12.5 L47.5,30 L32.5,30 C31.1175001,30 30,31.12 30,32.5 L30,47.5 L12.5,47.5 L12.5,12.5 L47.5,12.5 Z M35,35 L43.9650011,35 L35,43.9650011 L35,35 Z" fill="#2E3A59" mask="url(#mask-3)"></path>
                        </g>
                        <text id="Sync-Gateway---text" font-family="Arial-BoldMT, Arial" font-size="18" font-weight="bold" fill="#DC0E0E">
                            <tspan x="15.4975586" y="19">Doc</tspan>
                        </text>
                    </g>
                    <g id="User/Role" transform="translate(0.000000, 295.000000)">
                        <g id="Labelled-Circle--Role" transform="translate(90.000000, 3.000000)">
                            <circle id="Oval" stroke="#979797" fill="#D8D8D8" cx="60" cy="60" r="59.5"></circle>
                            <text id="Sync-Gateway---text" font-family="Arial-BoldMT, Arial" font-size="18" font-weight="bold" fill="#DC0E0E">
                                <tspan x="40.4970703" y="27.7391304">Role</tspan>
                            </text>
                            <g id="user-/-id_card" transform="translate(31.304348, 54.782609)">
                                <mask id="mask-5" fill="white">
                                    <use xlink:href="#path-4"></use>
                                </mask>
                                <g id="user-/-id_card-(Background/Mask)"></g>
                                <path d="M28.6508809,22.2826087 C28.6508809,19.7178804 26.5745223,17.826087 23.7595765,17.826087 C20.9446308,17.826087 18.8682722,19.7178804 18.8682722,22.2826087 C18.8682722,24.847337 20.9421854,26.7391304 23.7595765,26.7391304 C26.5745223,26.7391304 28.6508809,24.847337 28.6508809,22.2826087 Z M34.2391304,20.0543478 L34.2391304,24.5108696 L44.0217391,24.5108696 L44.0217391,20.0543478 L34.2391304,20.0543478 Z M36.6847826,28.9673913 L36.6847826,33.423913 L44.0217391,33.423913 L44.0217391,28.9673913 L36.6847826,28.9673913 Z M32.8451094,35.6521739 L14.673913,35.6521739 C14.673913,32.5905444 18.7728264,28.4103261 23.7595112,28.4103261 C28.7461949,28.4103261 32.8451094,32.5905444 32.8451094,35.6521739 Z M48.9130435,8.91304348 L9.7826087,8.91304348 C7.08505424,8.91304348 4.89130435,10.7870108 4.89130435,13.0910326 L4.89130435,40.3872283 C4.89130435,42.6912509 7.08505424,44.5652174 9.7826087,44.5652174 L48.9130435,44.5652174 C51.6105994,44.5652174 53.8043478,42.6912509 53.8043478,40.3872283 L53.8043478,13.0910326 C53.8043478,10.7870108 51.6105994,8.91304348 48.9130435,8.91304348 L48.9130435,8.91304348 Z M48.9130435,40.1086957 L9.7826087,40.0841855 L9.7826087,13.3695652 L48.9130435,13.3940764 L48.9130435,40.1086957 L48.9130435,40.1086957 Z" fill="#2E3A59" mask="url(#mask-5)"></path>
                            </g>
                        </g>
                        <g id="Labelled-Circle">
                            <circle id="Oval" stroke="#979797" fill="#D8D8D8" cx="60" cy="60" r="59.5"></circle>
                            <text id="Sync-Gateway---text" font-family="Arial-BoldMT, Arial" font-size="18" font-weight="bold" fill="#DC0E0E">
                                <tspan x="39.9873047" y="27.7391304">User</tspan>
                            </text>
                            <g id="user-/-user" transform="translate(31.304348, 54.782609)">
                                <mask id="mask-7" fill="white">
                                    <use xlink:href="#path-6"></use>
                                </mask>
                                <g id="user-/-user-(Background/Mask)"></g>
                                <path d="M17.1195652,15.5978261 C17.1195652,21.7411412 22.6051631,26.7391304 29.3478261,26.7391304 C36.0904891,26.7391304 41.576087,21.7411412 41.576087,15.5978261 C41.576087,9.45451094 36.0904891,4.45652174 29.3478261,4.45652174 C22.6051631,4.45652174 17.1195652,9.45451094 17.1195652,15.5978261 Z M22.0108696,15.5978261 C22.0108696,11.9122825 25.3027173,8.91304348 29.3478261,8.91304348 C33.3929349,8.91304348 36.6847826,11.9122825 36.6847826,15.5978261 C36.6847826,19.2833697 33.3929349,22.2826087 29.3478261,22.2826087 C25.3027173,22.2826087 22.0108696,19.2833697 22.0108696,15.5978261 Z M51.3586957,44.5652174 C51.3586957,35.9663588 43.6769021,28.9673913 34.2391304,28.9673913 L24.4565217,28.9673913 C15.0163046,28.9673913 7.33695652,35.9663588 7.33695652,44.5652174 L7.33695652,46.7934783 L12.2282609,46.7934783 L12.2282609,44.5652174 C12.2282609,38.4219022 17.7138588,33.423913 24.4565217,33.423913 L34.2391304,33.423913 C40.9817934,33.423913 46.4673913,38.4219022 46.4673913,44.5652174 L46.4673913,46.7934783 L51.3586957,46.7934783 L51.3586957,44.5652174 Z" fill="#2E3A59" mask="url(#mask-7)"></path>
                            </g>
                        </g>
                    </g>
                    <g id="Labelled-Box--Channel" transform="translate(12.000000, 145.000000)">
                        <rect id="Rectangle" stroke="#979797" fill="#D8D8D8" x="0.5" y="0.5" width="185" height="99" rx="8"></rect>
                        <g id="media-/-shuffle" transform="translate(67.000000, 40.000000)">
                            <mask id="mask-9" fill="white">
                                <use xlink:href="#path-8"></use>
                            </mask>
                            <g id="media-/-shuffle-(Background/Mask)"></g>
                            <path d="M26.4750004,22.9250002 L13.5249999,10 L10,13.5249999 L22.9250002,26.4499998 L26.4750004,22.9250002 L26.4750004,22.9250002 Z M36.25,10 L41.3499999,15.0999999 L10,46.4750004 L13.5249999,50 L44.9000001,18.6500001 L50,23.75 L50,10 L36.25,10 L36.25,10 Z M33.5500002,37.0499992 L37.0749998,33.5249996 L44.9000001,41.3499999 L50,36.25 L50,50 L36.25,50 L41.3750005,44.8749995 L33.5500002,37.0499992 L33.5500002,37.0499992 Z" fill="#2E3A59" mask="url(#mask-9)"></path>
                        </g>
                        <text id="Sync-Gateway---text" font-family="Arial-BoldMT, Arial" font-size="18" font-weight="bold" fill="#DC0E0E">
                            <tspan x="56.996582" y="16">Channel</tspan>
                        </text>
                    </g>
                    <g id="arrow-/-thin_long_02_down" transform="translate(73.000000, 80.000000)">
                        <mask id="mask-11" fill="white">
                            <use xlink:href="#path-10"></use>
                        </mask>
                        <g id="arrow-/-thin_long_02_down-(Background/Mask)"></g>
                        <path d="M46.6667599,57.4999994 L59.1666647,49.9999994 L46.6666649,42.4999994 L43.7203835,44.2677643 L51.1909831,48.7501212 L0.833331348,48.750118 L0.833331348,51.250118 L51.1906016,51.2501206 L43.7204785,55.7322303 L46.6667599,57.4999994 Z" fill="#2E3A59" fill-rule="nonzero" mask="url(#mask-11)" transform="translate(29.999998, 49.999999) rotate(90.000003) translate(-29.999998, -49.999999) "></path>
                    </g>
                    <g id="Group" transform="translate(78.000000, 215.000000)">
                        <g id="arrow-/-thin_long_02_down" transform="translate(30.000000, 61.500000) scale(1, -1) translate(-30.000000, -61.500000) ">
                            <mask id="mask-13" fill="white">
                                <use xlink:href="#path-12"></use>
                            </mask>
                            <g id="arrow-/-thin_long_02_down-(Background/Mask)"></g>
                            <path d="M50.5001145,68.9999993 L65.8749976,61.4999993 L50.4999979,53.9999993 L46.8760717,55.7677635 L56.0649092,60.2501204 L-5.8750025,60.2501176 L-5.8750025,62.7501176 L56.0644399,62.7501198 L46.8761884,67.2322295 L50.5001145,68.9999993 Z" fill="#2E3A59" fill-rule="nonzero" mask="url(#mask-13)" transform="translate(29.999998, 61.499999) rotate(90.000003) translate(-29.999998, -61.499999) "></path>
                        </g>
                    </g>
                </g>
                <g filter="url(#filter-14)" id="Assignment">
                    <g transform="translate(0.000000, 81.000000)">
                        <g id="basic-/-label" transform="translate(148.000000, 0.000000)">
                            <mask id="mask-16" fill="white">
                                <use xlink:href="#path-15"></use>
                            </mask>
                            <g id="basic-/-label-(Background/Mask)"></g>
                            <path d="M51.6666667,16.6666667 C53.9000003,16.6666667 55.9000015,17.7666666 57.1000004,19.4666666 L71.6666667,40 L57.1000004,60.5333328 C55.9000015,62.2333336 53.9000003,63.3333333 51.6666667,63.3333333 L15,63.2999992 C11.3333333,63.2999992 8.33333333,60.3333346 8.33333333,56.6666667 L8.33333333,23.3333333 C8.33333333,19.6666667 11.3333333,16.7 15,16.7 L51.6666667,16.6666667 C53.1555557,16.6666667 53.1555557,16.6666667 51.6666667,16.6666667 Z M15,56.6666667 L51.6666667,56.6666667 L63.4999975,40 L51.6666667,23.3333333 L15,23.3333333 L15,56.6666667 L15,56.6666667 Z" fill="#2E3A59" mask="url(#mask-16)"></path>
                        </g>
                        <text id="text-label" fill-rule="nonzero" font-family="Arial-BoldMT, Arial" font-size="18" font-weight="bold" line-spacing="30" fill="#DD3615">
                            <tspan x="179.494629" y="37">1</tspan>
                        </text>
                        <text id="text-label" fill-rule="nonzero" font-family="Arial-BoldMT, Arial" font-size="18" font-weight="bold" line-spacing="30" fill="#DD3615">
                            <tspan x="179.494629" y="37">1</tspan>
                        </text>
                        <text id="text-label" fill-rule="nonzero" font-family="Arial-BoldMT, Arial" font-size="18" font-weight="bold" line-spacing="30" fill="#DD3615">
                            <tspan x="0.0009765625" y="42">SYNC FUNCTION</tspan>
                        </text>
                    </g>
                </g>
                <g filter="url(#filter-17)" id="Access-grants">
                    <g transform="translate(0.000000, 228.000000)">
                        <g id="basic-/-label" transform="translate(148.000000, 5.000000)">
                            <mask id="mask-19" fill="white">
                                <use xlink:href="#path-18"></use>
                            </mask>
                            <g id="basic-/-label-(Background/Mask)"></g>
                            <path d="M51.6666667,16.6666667 C53.9000003,16.6666667 55.9000015,17.7666666 57.1000004,19.4666666 L71.6666667,40 L57.1000004,60.5333328 C55.9000015,62.2333336 53.9000003,63.3333333 51.6666667,63.3333333 L15,63.2999992 C11.3333333,63.2999992 8.33333333,60.3333346 8.33333333,56.6666667 L8.33333333,23.3333333 C8.33333333,19.6666667 11.3333333,16.7 15,16.7 L51.6666667,16.6666667 C53.1555557,16.6666667 53.1555557,16.6666667 51.6666667,16.6666667 Z M15,56.6666667 L51.6666667,56.6666667 L63.4999975,40 L51.6666667,23.3333333 L15,23.3333333 L15,56.6666667 L15,56.6666667 Z" fill="#2E3A59" mask="url(#mask-19)"></path>
                        </g>
                        <text id="text-label" fill-rule="nonzero" font-family="Arial-BoldMT, Arial" font-size="18" font-weight="bold" line-spacing="30" fill="#DD3615">
                            <tspan x="179.494629" y="42">2</tspan>
                        </text>
                        <text id="text-label" fill-rule="nonzero" font-family="Arial-BoldMT, Arial" font-size="18" font-weight="bold" line-spacing="30" fill="#6B6969">
                            <tspan x="34.0058594" y="16">CONFIG FILE</tspan>
                            <tspan x="65.6552734" y="46">REST API</tspan>
                            <tspan x="0.0009765625" y="76">SYNC FUNCTION</tspan>
                        </text>
                    </g>
                </g>
            </g>
        </g>
    </g>
</svg>